{
    "patcher": {
        "fileversion": 1,
        "appversion": {
            "major": 9,
            "minor": 1,
            "revision": 1,
            "architecture": "x64",
            "modernui": 1
        },
        "classnamespace": "box",
        "rect": [ 0.0, 61.0, 1264.0, 731.0 ],
        "toolbars_unpinned_last_save": 15,
        "boxes": [
            {
                "box": {
                    "id": "obj-10",
                    "maxclass": "newobj",
                    "numinlets": 1,
                    "numoutlets": 1,
                    "outlettype": [ "bang" ],
                    "patching_rect": [ 1066.0, 224.0, 58.0, 22.0 ],
                    "text": "loadbang"
                }
            },
            {
                "box": {
                    "id": "obj-7",
                    "maxclass": "newobj",
                    "numinlets": 2,
                    "numoutlets": 0,
                    "patching_rect": [ 1005.0, 599.0, 35.0, 22.0 ],
                    "text": "dac~"
                }
            },
            {
                "box": {
                    "id": "obj-6",
                    "lastchannelcount": 0,
                    "maxclass": "live.gain~",
                    "numinlets": 2,
                    "numoutlets": 5,
                    "outlettype": [ "signal", "signal", "", "float", "list" ],
                    "parameter_enable": 1,
                    "patching_rect": [ 1005.0, 450.0, 48.0, 136.0 ],
                    "presentation": 1,
                    "presentation_rect": [ 990.0, -210.0, 48.0, 136.0 ],
                    "saved_attribute_attributes": {
                        "valueof": {
                            "parameter_longname": "live.gain~",
                            "parameter_mmax": 6.0,
                            "parameter_mmin": -70.0,
                            "parameter_modmode": 3,
                            "parameter_shortname": "live.gain~",
                            "parameter_type": 0,
                            "parameter_unitstyle": 4
                        }
                    },
                    "varname": "live.gain~"
                }
            },
            {
                "box": {
                    "id": "obj-5",
                    "maxclass": "newobj",
                    "numinlets": 1,
                    "numoutlets": 2,
                    "outlettype": [ "signal", "signal" ],
                    "patching_rect": [ 1005.0, 419.0, 74.0, 22.0 ],
                    "text": "mc.unpack~"
                }
            },
            {
                "box": {
                    "id": "obj-2",
                    "maxclass": "newobj",
                    "numinlets": 2,
                    "numoutlets": 1,
                    "outlettype": [ "multichannelsignal" ],
                    "patching_rect": [ 1005.0, 390.0, 60.0, 22.0 ],
                    "text": "mc.*~ 0.1"
                }
            },
            {
                "box": {
                    "id": "obj-34",
                    "maxclass": "newobj",
                    "numinlets": 2,
                    "numoutlets": 1,
                    "outlettype": [ "multichannelsignal" ],
                    "patching_rect": [ 1005.0, 360.0, 68.0, 22.0 ],
                    "text": "mc.stereo~"
                }
            },
            {
                "box": {
                    "id": "obj-30",
                    "maxclass": "button",
                    "numinlets": 1,
                    "numoutlets": 1,
                    "outlettype": [ "bang" ],
                    "parameter_enable": 0,
                    "patching_rect": [ 976.0, 166.0, 24.0, 24.0 ]
                }
            },
            {
                "box": {
                    "id": "obj-27",
                    "maxclass": "newobj",
                    "numinlets": 1,
                    "numoutlets": 1,
                    "outlettype": [ "multichannelsignal" ],
                    "patching_rect": [ 1185.0, 314.0, 128.0, 22.0 ],
                    "text": "mc.sig~ @chans 1024"
                }
            },
            {
                "box": {
                    "id": "obj-26",
                    "maxclass": "newobj",
                    "numinlets": 2,
                    "numoutlets": 1,
                    "outlettype": [ "" ],
                    "patching_rect": [ 1185.0, 255.0, 47.0, 22.0 ],
                    "text": "pack i f"
                }
            },
            {
                "box": {
                    "id": "obj-25",
                    "maxclass": "newobj",
                    "numinlets": 2,
                    "numoutlets": 1,
                    "outlettype": [ "int" ],
                    "patching_rect": [ 1005.0, 224.0, 29.5, 22.0 ],
                    "text": "+ 1"
                }
            },
            {
                "box": {
                    "id": "obj-24",
                    "maxclass": "newobj",
                    "numinlets": 1,
                    "numoutlets": 1,
                    "outlettype": [ "" ],
                    "patching_rect": [ 1185.0, 285.0, 101.0, 22.0 ],
                    "text": "prepend setvalue"
                }
            },
            {
                "box": {
                    "id": "obj-23",
                    "maxclass": "newobj",
                    "numinlets": 2,
                    "numoutlets": 1,
                    "outlettype": [ "multichannelsignal" ],
                    "patching_rect": [ 1005.0, 329.0, 40.0, 22.0 ],
                    "text": "mc.*~"
                }
            },
            {
                "box": {
                    "id": "obj-22",
                    "maxclass": "message",
                    "numinlets": 2,
                    "numoutlets": 1,
                    "outlettype": [ "" ],
                    "patching_rect": [ 1005.0, 255.0, 108.0, 22.0 ],
                    "text": "increment 100 100"
                }
            },
            {
                "box": {
                    "id": "obj-20",
                    "maxclass": "newobj",
                    "numinlets": 2,
                    "numoutlets": 1,
                    "outlettype": [ "multichannelsignal" ],
                    "patching_rect": [ 1005.0, 285.0, 140.0, 22.0 ],
                    "text": "mc.cycle~ @chans 1024"
                }
            },
            {
                "box": {
                    "id": "obj-19",
                    "maxclass": "newobj",
                    "numinlets": 1,
                    "numoutlets": 2,
                    "outlettype": [ "int", "float" ],
                    "patching_rect": [ 1051.0, 166.0, 60.0, 22.0 ],
                    "text": "unpack i f"
                }
            },
            {
                "box": {
                    "id": "obj-16",
                    "maxclass": "newobj",
                    "numinlets": 2,
                    "numoutlets": 1,
                    "outlettype": [ "int" ],
                    "patching_rect": [ 1005.0, 195.0, 29.5, 22.0 ],
                    "text": "+"
                }
            },
            {
                "box": {
                    "id": "obj-15",
                    "maxclass": "newobj",
                    "numinlets": 2,
                    "numoutlets": 1,
                    "outlettype": [ "int" ],
                    "patching_rect": [ 1005.0, 166.0, 30.0, 22.0 ],
                    "text": "* 32"
                }
            },
            {
                "box": {
                    "id": "obj-9",
                    "maxclass": "newobj",
                    "numinlets": 1,
                    "numoutlets": 1,
                    "outlettype": [ "list" ],
                    "patching_rect": [ 1051.0, 136.0, 66.0, 22.0 ],
                    "text": "listfunnel 0"
                }
            },
            {
                "box": {
                    "id": "obj-8",
                    "maxclass": "newobj",
                    "numinlets": 2,
                    "numoutlets": 2,
                    "outlettype": [ "", "" ],
                    "patching_rect": [ 1005.0, 105.0, 61.0, 22.0 ],
                    "text": "list.slice 1"
                }
            },
            {
                "box": {
                    "id": "obj-1",
                    "maxclass": "newobj",
                    "numinlets": 2,
                    "numoutlets": 2,
                    "outlettype": [ "", "" ],
                    "patching_rect": [ 1005.0, 75.0, 59.0, 22.0 ],
                    "text": "route row"
                }
            },
            {
                "box": {
                    "disablefind": 0,
                    "id": "obj-4",
                    "maxclass": "jweb",
                    "numinlets": 1,
                    "numoutlets": 1,
                    "outlettype": [ "" ],
                    "patching_rect": [ 105.0, 75.0, 870.0, 525.0 ],
                    "presentation": 1,
                    "presentation_rect": [ 90.0, -270.0, 870.0, 525.0 ],
                    "rendermode": 0,
                    "url": "file://cellular-automata.html"
                }
            },
            {
                "box": {
                    "id": "obj-3",
                    "maxclass": "message",
                    "numinlets": 2,
                    "numoutlets": 1,
                    "outlettype": [ "" ],
                    "patching_rect": [ 105.0, 45.0, 48.0, 22.0 ],
                    "text": "readfile"
                }
            }
        ],
        "lines": [
            {
                "patchline": {
                    "destination": [ "obj-8", 0 ],
                    "source": [ "obj-1", 0 ]
                }
            },
            {
                "patchline": {
                    "destination": [ "obj-22", 0 ],
                    "source": [ "obj-10", 0 ]
                }
            },
            {
                "patchline": {
                    "destination": [ "obj-16", 0 ],
                    "source": [ "obj-15", 0 ]
                }
            },
            {
                "patchline": {
                    "destination": [ "obj-25", 0 ],
                    "source": [ "obj-16", 0 ]
                }
            },
            {
                "patchline": {
                    "destination": [ "obj-16", 1 ],
                    "order": 0,
                    "source": [ "obj-19", 0 ]
                }
            },
            {
                "patchline": {
                    "destination": [ "obj-26", 1 ],
                    "source": [ "obj-19", 1 ]
                }
            },
            {
                "patchline": {
                    "destination": [ "obj-30", 0 ],
                    "order": 1,
                    "source": [ "obj-19", 0 ]
                }
            },
            {
                "patchline": {
                    "destination": [ "obj-5", 0 ],
                    "source": [ "obj-2", 0 ]
                }
            },
            {
                "patchline": {
                    "destination": [ "obj-23", 0 ],
                    "source": [ "obj-20", 0 ]
                }
            },
            {
                "patchline": {
                    "destination": [ "obj-20", 0 ],
                    "source": [ "obj-22", 0 ]
                }
            },
            {
                "patchline": {
                    "destination": [ "obj-34", 0 ],
                    "source": [ "obj-23", 0 ]
                }
            },
            {
                "patchline": {
                    "destination": [ "obj-27", 0 ],
                    "source": [ "obj-24", 0 ]
                }
            },
            {
                "patchline": {
                    "destination": [ "obj-26", 0 ],
                    "source": [ "obj-25", 0 ]
                }
            },
            {
                "patchline": {
                    "destination": [ "obj-24", 0 ],
                    "source": [ "obj-26", 0 ]
                }
            },
            {
                "patchline": {
                    "destination": [ "obj-23", 1 ],
                    "source": [ "obj-27", 0 ]
                }
            },
            {
                "patchline": {
                    "destination": [ "obj-4", 0 ],
                    "source": [ "obj-3", 0 ]
                }
            },
            {
                "patchline": {
                    "destination": [ "obj-16", 0 ],
                    "source": [ "obj-30", 0 ]
                }
            },
            {
                "patchline": {
                    "destination": [ "obj-2", 0 ],
                    "source": [ "obj-34", 0 ]
                }
            },
            {
                "patchline": {
                    "destination": [ "obj-1", 0 ],
                    "midpoints": [ 114.5, 609.5050578117371, 977.6938179116696, 609.5050578117371, 977.6938179116696, 64.50505781173706, 1014.5, 64.50505781173706 ],
                    "source": [ "obj-4", 0 ]
                }
            },
            {
                "patchline": {
                    "destination": [ "obj-6", 1 ],
                    "source": [ "obj-5", 1 ]
                }
            },
            {
                "patchline": {
                    "destination": [ "obj-6", 0 ],
                    "source": [ "obj-5", 0 ]
                }
            },
            {
                "patchline": {
                    "destination": [ "obj-7", 1 ],
                    "source": [ "obj-6", 1 ]
                }
            },
            {
                "patchline": {
                    "destination": [ "obj-7", 0 ],
                    "source": [ "obj-6", 0 ]
                }
            },
            {
                "patchline": {
                    "destination": [ "obj-15", 0 ],
                    "source": [ "obj-8", 0 ]
                }
            },
            {
                "patchline": {
                    "destination": [ "obj-9", 0 ],
                    "source": [ "obj-8", 1 ]
                }
            },
            {
                "patchline": {
                    "destination": [ "obj-19", 0 ],
                    "source": [ "obj-9", 0 ]
                }
            }
        ],
        "parameters": {
            "obj-6": [ "live.gain~", "live.gain~", 0 ],
            "parameterbanks": {
                "0": {
                    "index": 0,
                    "name": "",
                    "parameters": [ "-", "-", "-", "-", "-", "-", "-", "-" ],
                    "buttons": [ "-", "-", "-", "-", "-", "-", "-", "-" ]
                }
            },
            "inherited_shortname": 1
        },
        "autosave": 0
    }
}